<?xml version="1.0" standalone="no"?>
<!DOCTYPE svg PUBLIC "-//W3C//DTD SVG 20010904//EN"
 "http://www.w3.org/TR/2001/REC-SVG-20010904/DTD/svg10.dtd">
<svg version="1.0" xmlns="http://www.w3.org/2000/svg"
 width="500.000000pt" height="499.000000pt" viewBox="0 0 500.000000 499.000000"
 preserveAspectRatio="xMidYMid meet">

<g transform="translate(0.000000,499.000000) scale(0.100000,-0.100000)"
fill="#000000" stroke="none">
<path d="M2005 3694 c-33 -20 -126 -75 -207 -121 -82 -47 -148 -88 -148 -93 0
-4 6 -10 14 -13 7 -3 88 -53 179 -111 92 -58 169 -106 173 -106 3 0 54 28 113
63 58 35 152 90 208 123 56 32 103 62 103 65 0 9 -349 229 -363 229 -7 0 -39
-16 -72 -36z"/>
<path d="M662 3223 c3 -71 13 -357 22 -638 31 -984 37 -1156 42 -1168 3 -7
292 -202 642 -435 350 -233 714 -475 807 -538 225 -153 276 -184 303 -184 12
0 53 20 90 44 37 24 150 96 252 159 102 63 244 152 315 197 72 46 186 118 255
160 158 98 319 198 585 366 116 73 239 149 273 169 34 19 66 43 71 53 4 9 12
154 15 322 4 168 14 481 22 695 22 584 32 900 29 904 -4 3 -210 -122 -395
-239 -41 -26 -217 -134 -390 -240 -173 -107 -416 -257 -540 -334 -124 -77
-301 -186 -394 -242 -161 -98 -171 -102 -195 -89 -14 8 -91 56 -171 109 -80
52 -235 153 -345 224 -110 71 -337 218 -505 327 -574 372 -781 505 -788 505
-4 0 -4 -57 0 -127z m3290 -873 c-3 -26 -29 -53 -47 -47 -18 6 -17 38 1 58 24
27 50 20 46 -11z m-2147 -400 l70 -47 -3 -61 -4 -61 -71 50 c-134 95 -489 330
-492 327 -2 -2 0 -114 6 -248 7 -172 13 -247 22 -252 7 -3 53 -35 102 -71 l90
-65 5 158 5 158 173 -114 172 -114 0 -60 c0 -69 5 -69 -85 0 -69 53 -151 110
-159 110 -3 0 -6 -44 -6 -98 l0 -99 130 -89 129 -89 1 -58 0 -59 -28 19 c-16
10 -166 110 -334 222 l-306 204 -6 176 c-3 97 -9 263 -12 369 l-6 193 268
-177 c148 -97 301 -198 339 -224z m2043 288 c20 -20 14 -67 -12 -93 -13 -13
-42 -29 -65 -36 -43 -13 -52 -25 -26 -35 9 -4 33 6 55 21 22 16 43 25 46 22
12 -11 -36 -65 -73 -82 -42 -20 -64 -12 -73 26 -6 22 -8 20 -19 -16 -8 -22
-25 -53 -40 -68 -26 -28 -90 -67 -111 -67 -7 0 -10 45 -8 137 3 122 5 138 21
141 14 3 17 -4 17 -48 l0 -51 26 20 c34 27 79 27 97 1 14 -20 15 -19 21 20 13
79 104 148 144 108z m-349 -274 c-4 -86 -4 -86 -43 -120 -24 -21 -50 -34 -67
-34 -32 0 -36 12 -31 113 3 50 7 67 18 67 11 0 14 -16 14 -70 0 -38 4 -70 9
-70 6 0 22 11 38 24 25 21 28 31 31 100 3 59 8 76 19 76 12 0 14 -15 12 -86z
m-159 10 c0 -8 -15 -21 -34 -29 -63 -27 -114 -120 -95 -173 11 -30 28 -28 77
8 l42 30 0 -25 c0 -19 -11 -33 -47 -56 -58 -36 -93 -35 -111 4 -26 55 35 208
97 242 35 19 71 19 71 -1z m540 -131 l-1 -148 -52 -32 c-60 -38 -82 -41 -97
-14 -14 28 -13 96 4 135 18 43 64 79 93 73 22 -4 23 -1 23 58 0 60 4 75 22 75
4 0 8 -66 8 -147z m-190 -109 c14 -36 12 -138 -2 -152 -23 -23 -28 -12 -28 59
0 68 -1 70 -22 64 -43 -13 -53 -32 -58 -112 -3 -50 -9 -78 -18 -81 -10 -3 -12
18 -10 95 3 86 5 98 21 97 9 -1 17 2 17 6 0 10 61 50 78 50 7 0 17 -12 22 -26z
m-180 -157 c0 -96 -9 -114 -76 -153 -63 -37 -74 -25 -74 82 0 46 2 84 4 84 2
0 11 3 20 6 14 5 16 -5 16 -70 0 -84 9 -94 50 -51 19 21 24 39 28 105 3 59 8
80 18 80 11 0 14 -19 14 -83z m-180 34 c0 -13 -22 -33 -65 -60 -60 -38 -65
-44 -65 -77 l0 -36 25 16 c14 9 36 23 50 32 23 15 25 15 25 0 0 -9 -22 -32
-49 -51 -49 -36 -61 -61 -61 -136 0 -15 -7 -29 -15 -33 -13 -5 -15 13 -15 127
l0 132 78 52 c42 29 80 52 85 53 4 0 7 -9 7 -19z"/>
<path d="M3766 2179 c-15 -17 -24 -34 -21 -37 9 -10 76 33 73 47 -5 26 -25 22
-52 -10z"/>
<path d="M3593 2062 c-25 -19 -45 -73 -34 -91 12 -19 72 40 76 77 5 37 -8 41
-42 14z"/>
<path d="M3781 1793 c-26 -32 -35 -65 -27 -98 8 -33 31 -32 67 4 24 24 29 38
29 75 0 42 -2 46 -24 46 -15 0 -33 -11 -45 -27z"/>
</g>
</svg>
